<svg version="1" xmlns="http://www.w3.org/2000/svg" width="933.333" height="933.333" viewBox="0 0 700.000000 700.000000"><path d="M328.5.6c-20.3 2-27.6 2.8-37.5 4.5-61 10.5-119.5 37.6-166.5 77.2-9.5 8.1-31 29.4-39.4 39.2C38.3 175.7 10.9 239.1 1.8 314c-1.7 13.7-1.7 58.3 0 72 6.9 56.9 22.7 102.8 51.4 149.1 14.5 23.6 31.1 44 52.5 64.9 20.4 20 37.1 33.2 59.2 46.8 46.3 28.7 92.2 44.5 149.1 51.4 13.7 1.7 58.3 1.7 72 0 56.9-6.9 102.8-22.7 149.1-51.4 36-22.2 69.2-52.8 95.8-88.2 32.3-43 54.9-96 64-150.1 3.8-22.3 4.6-32.7 4.6-58.5 0-25.8-.8-36.2-4.6-58.5-10.5-62.7-38.2-121.6-80-170-8.4-9.8-29.9-31.1-39.4-39.2-51.8-43.7-114.8-71-184.5-79.8C379.3 1 337.4-.3 328.5.6zM500 234.4c29.8 6.9 53.1 25.1 66.8 52.2l2.1 4.2-25.4 10.6c-13.9 5.8-25.7 10.6-26.2 10.6s-2.2-2.8-3.8-6.3c-4-8.2-14-18.4-21.9-22.1-3.3-1.5-9.4-3.2-13.8-3.9-27.3-4-50.7 14.2-58.9 45.8-2.9 11.4-3 29.1 0 39.8 7.4 27.1 22.6 42.1 46 45.8 11.4 1.7 24.8-.9 34.1-6.6 7.9-5 14.8-15.5 16.5-25.3l.7-4.2H471v-43H580.3l-.6 13.7c-1.7 35.7-10.5 59.5-29.8 79.8-17.6 18.5-37.8 27.8-66.3 30.6-40.8 4-79.9-11.5-101.9-40.3-33-43.2-29.2-113.8 8.2-151.7 15.5-15.7 36.7-26.5 59.1-30.1 4.1-.6 8.2-1.3 9-1.5 3.8-1 36.1.5 42 1.9zm-264.4 6.1c55 9.6 93.4 59.8 87.4 114.4-4.4 39.9-30.5 73.7-67.8 87.7-17.3 6.5-19.1 6.6-69.9 7.1l-46.3.5V239h43.9c35 0 45.6.3 52.7 1.5z"/><path d="M194 343.9V403h11.3c18.7 0 32.8-4.7 43.3-14.2 10.4-9.6 15.5-19.9 17.4-35.4 2.8-22.1-4.7-43.8-18.8-54.9-11.4-8.9-21.7-12.3-40.4-13.2l-12.8-.6v59.2z"/></svg>