<?xml version="1.0" encoding="utf-8"?>
<!-- Generator: Adobe Illustrator 22.0.1, SVG Export Plug-In . SVG Version: 6.00 Build 0)  -->
<svg version="1.1" id="Layer_1" xmlns="http://www.w3.org/2000/svg" xmlns:xlink="http://www.w3.org/1999/xlink" x="0px" y="0px"
	 viewBox="0 0 800 800" style="enable-background:new 0 0 800 800;" xml:space="preserve">
<style type="text/css">
	.st0{fill:#FFFFFF;}
</style>
<g>
	<circle cx="400" cy="400" r="399"/>
	<g>
		<g>
			<path class="st0" d="M194.3,254.1h31.1c5.5,0,10.7,1.1,15.5,3.3c4.8,2.2,9,5.2,12.6,8.8c3.6,3.7,6.4,8,8.5,12.9
				c2.1,4.9,3.1,10,3.1,15.4c0,5.3-1,10.4-3.1,15.3c-2,4.9-4.9,9.2-8.5,12.9c-3.6,3.7-7.8,6.7-12.6,8.9c-4.8,2.2-10,3.3-15.6,3.3
				h-31.1V254.1z M215.3,317.1h4.8c3.6,0,6.9-0.6,9.7-1.7c2.9-1.1,5.3-2.7,7.2-4.7c2-2,3.5-4.4,4.5-7.1c1-2.7,1.6-5.8,1.6-9.1
				c0-3.2-0.5-6.2-1.6-9c-1.1-2.8-2.6-5.2-4.6-7.2c-2-2-4.4-3.6-7.2-4.7c-2.9-1.1-6.1-1.7-9.6-1.7h-4.8V317.1z"/>
			<path class="st0" d="M341.7,320.8h-30l-4.8,14h-22.4l30.7-80.8h22.9l30.7,80.8h-22.4L341.7,320.8z M336.1,304.9l-9.4-26.9
				l-9.4,26.9H336.1z"/>
			<path class="st0" d="M418.4,254.1v80.8h-21v-80.8H418.4z"/>
			<path class="st0" d="M484.1,254.1v63h25.2v17.8h-46.2v-80.8H484.1z"/>
			<path class="st0" d="M555,296.1l-29.5-42h25.1l15,22.1l14.9-22.1h25.1l-29.6,42v38.8h-21V296.1z"/>
		</g>
		<g>
			<path class="st0" d="M199.8,431.8h41.7c0,4.3-0.2,8.2-0.5,11.7c-0.4,3.5-1.1,6.7-2.1,9.7c-1.5,4.2-3.5,7.9-6.1,11.2
				c-2.6,3.3-5.6,6-9.1,8.1c-3.5,2.2-7.3,3.8-11.4,5c-4.1,1.1-8.5,1.7-13.1,1.7c-6.3,0-12-1-17.2-3.1c-5.2-2.1-9.6-5-13.3-8.7
				c-3.7-3.7-6.6-8.2-8.7-13.5c-2.1-5.2-3.1-11-3.1-17.4c0-6.3,1-12.1,3.1-17.3c2-5.2,4.9-9.7,8.7-13.4c3.7-3.7,8.3-6.6,13.6-8.7
				c5.3-2.1,11.2-3.1,17.7-3.1c8.4,0,15.8,1.8,22.2,5.5c6.4,3.6,11.4,9.3,15.1,16.9l-19.9,8.2c-1.9-4.4-4.3-7.6-7.2-9.5
				c-3-1.9-6.3-2.9-10.1-2.9c-3.1,0-6,0.6-8.6,1.8s-4.8,2.9-6.6,5c-1.8,2.2-3.3,4.8-4.3,7.9c-1,3.1-1.6,6.5-1.6,10.3
				c0,3.4,0.4,6.6,1.3,9.5c0.9,2.9,2.2,5.5,4,7.6c1.8,2.1,4,3.8,6.6,5c2.6,1.2,5.7,1.8,9.2,1.8c2.1,0,4.1-0.2,6-0.7
				c1.9-0.5,3.7-1.2,5.2-2.2c1.5-1,2.8-2.4,3.8-4c1-1.6,1.7-3.6,2-6h-17.2V431.8z"/>
			<path class="st0" d="M343.3,477h-26.1l-20-31.1V477h-21v-80.8h32.7c4.5,0,8.4,0.7,11.8,2c3.4,1.3,6.1,3.1,8.3,5.4
				c2.2,2.3,3.8,4.9,4.9,7.9c1.1,3,1.7,6.2,1.7,9.6c0,6.1-1.5,11.1-4.4,14.9c-3,3.8-7.3,6.4-13.1,7.8L343.3,477z M297.2,432.4h4
				c4.1,0,7.3-0.9,9.5-2.6c2.2-1.7,3.3-4.2,3.3-7.4c0-3.2-1.1-5.7-3.3-7.4c-2.2-1.7-5.4-2.6-9.5-2.6h-4V432.4z"/>
			<path class="st0" d="M396.7,396.3V477h-21v-80.8H396.7z"/>
			<path class="st0" d="M439.3,477v-80.8h21l38.8,49.4v-49.4H520V477h-20.9l-38.8-49.4V477H439.3z"/>
			<path class="st0" d="M562.6,396.3h31.1c5.5,0,10.7,1.1,15.5,3.3c4.8,2.2,9,5.2,12.6,8.8c3.6,3.7,6.4,8,8.5,12.9
				c2.1,4.9,3.1,10,3.1,15.4c0,5.3-1,10.4-3.1,15.3c-2,4.9-4.9,9.2-8.5,12.9c-3.6,3.7-7.8,6.7-12.6,8.9c-4.8,2.2-10,3.3-15.6,3.3
				h-31.1V396.3z M583.6,459.2h4.8c3.6,0,6.9-0.6,9.7-1.7c2.9-1.1,5.3-2.7,7.2-4.7c2-2,3.5-4.4,4.5-7.1c1-2.7,1.6-5.8,1.6-9.1
				c0-3.2-0.5-6.2-1.6-9c-1.1-2.8-2.6-5.2-4.6-7.2c-2-2-4.4-3.6-7.2-4.7c-2.9-1.1-6.1-1.7-9.6-1.7h-4.8V459.2z"/>
		</g>
		<g>
			<path class="st0" d="M284.9,551.2c-2.4-3-5.4-4.4-9-4.4c-1.6,0-3,0.3-4.4,0.9c-1.3,0.6-2.5,1.3-3.5,2.3c-1,1-1.7,2.2-2.3,3.5
				c-0.6,1.4-0.8,2.8-0.8,4.4c0,1.6,0.3,3.1,0.8,4.4c0.6,1.4,1.3,2.5,2.3,3.5c1,1,2.1,1.8,3.5,2.4c1.3,0.6,2.7,0.9,4.3,0.9
				c3.4,0,6.4-1.4,9.1-4.3v12.4l-1.1,0.4c-1.6,0.6-3.1,1-4.5,1.3c-1.4,0.3-2.8,0.4-4.1,0.4c-2.8,0-5.5-0.5-8-1.6
				c-2.6-1.1-4.8-2.5-6.7-4.4c-1.9-1.9-3.5-4.2-4.7-6.8c-1.2-2.6-1.8-5.5-1.8-8.6s0.6-6,1.7-8.5c1.2-2.6,2.7-4.8,4.7-6.7
				c1.9-1.9,4.2-3.3,6.8-4.4c2.6-1.1,5.3-1.6,8.1-1.6c1.6,0,3.2,0.2,4.7,0.5c1.6,0.3,3.2,0.9,4.9,1.6V551.2z"/>
			<path class="st0" d="M308.6,557.9c0-3,0.6-5.8,1.7-8.4c1.1-2.6,2.6-4.8,4.6-6.8c2-1.9,4.3-3.4,7-4.5c2.7-1.1,5.7-1.6,9-1.6
				c3.2,0,6.2,0.5,9,1.6c2.7,1.1,5.1,2.6,7.1,4.5c2,1.9,3.5,4.2,4.6,6.8c1.1,2.6,1.7,5.4,1.7,8.4s-0.6,5.8-1.7,8.4
				c-1.1,2.6-2.7,4.8-4.6,6.8c-2,1.9-4.3,3.4-7.1,4.5c-2.7,1.1-5.7,1.6-9,1.6c-3.3,0-6.3-0.5-9-1.6c-2.7-1.1-5.1-2.6-7-4.5
				c-2-1.9-3.5-4.2-4.6-6.8C309.1,563.7,308.6,560.9,308.6,557.9z M319.5,557.9c0,1.6,0.3,3.1,0.9,4.4c0.6,1.4,1.4,2.5,2.5,3.5
				c1,1,2.2,1.8,3.6,2.3c1.4,0.6,2.8,0.8,4.4,0.8c1.5,0,3-0.3,4.4-0.8c1.4-0.6,2.6-1.3,3.6-2.3c1.1-1,1.9-2.2,2.5-3.5
				c0.6-1.4,0.9-2.8,0.9-4.4c0-1.6-0.3-3.1-0.9-4.4c-0.6-1.4-1.4-2.5-2.5-3.5c-1.1-1-2.3-1.8-3.6-2.3c-1.4-0.6-2.8-0.8-4.4-0.8
				c-1.5,0-3,0.3-4.4,0.8c-1.4,0.6-2.6,1.3-3.6,2.3c-1,1-1.9,2.2-2.5,3.5C319.8,554.9,319.5,556.3,319.5,557.9z"/>
			<path class="st0" d="M399.1,546.6h-12.6v6.7H398v8.9h-11.5v15.9H376v-40.4h23.1V546.6z"/>
			<path class="st0" d="M446.7,546.6h-12.6v6.7h11.5v8.9h-11.5v15.9h-10.5v-40.4h23.1V546.6z"/>
			<path class="st0" d="M494.2,546.6h-12.5v6.7h11.8v8.9h-11.8v7h12.5v8.9h-23v-40.4h23V546.6z"/>
			<path class="st0" d="M542.9,546.6h-12.5v6.7h11.8v8.9h-11.8v7h12.5v8.9h-23v-40.4h23V546.6z"/>
		</g>
	</g>
</g>
</svg>
