<?xml version="1.0" encoding="utf-8"?>
<!-- Generator: Adobe Illustrator 22.0.1, SVG Export Plug-In . SVG Version: 6.00 Build 0)  -->
<svg version="1.1" id="Layer_1" xmlns="http://www.w3.org/2000/svg" xmlns:xlink="http://www.w3.org/1999/xlink" x="0px" y="0px"
	 viewBox="0 0 800 800" style="enable-background:new 0 0 800 800;" xml:space="preserve">
<g>
	<ellipse cx="400" cy="400" rx="81.4" ry="81.8"/>
	<path d="M590.4,255.4c-4.4-11.4-9.7-19.6-18.3-28.2c-8.5-8.6-16.7-13.9-28.1-18.3c-8.6-3.4-21.5-7.4-45.4-8.4
		c-25.8-1.2-33.5-1.4-98.7-1.4c-65.2,0-73,0.2-98.7,1.4c-23.8,1.1-36.8,5.1-45.4,8.4c-11.4,4.4-19.5,9.8-28.1,18.3
		c-8.5,8.6-13.8,16.8-18.3,28.2c-3.3,8.6-7.3,21.6-8.4,45.5c-1.2,25.9-1.4,33.6-1.4,99.1s0.2,73.2,1.4,99.1
		c1.1,23.9,5.1,36.9,8.4,45.5c4.4,11.4,9.7,19.6,18.3,28.2c8.5,8.6,16.7,13.9,28.1,18.3c8.6,3.4,21.5,7.4,45.4,8.4
		c25.8,1.2,33.5,1.4,98.7,1.4c65.2,0,73-0.2,98.7-1.4c23.8-1.1,36.8-5.1,45.4-8.4c11.4-4.4,19.5-9.8,28.1-18.3
		c8.5-8.6,13.8-16.8,18.3-28.2c3.3-8.6,7.3-21.6,8.4-45.5c1.2-25.9,1.4-33.6,1.4-99.1s-0.2-73.2-1.4-99.1
		C597.8,277,593.8,264,590.4,255.4z M400,525.9c-69.3,0-125.5-56.4-125.5-125.9c0-69.6,56.2-125.9,125.5-125.9
		S525.5,330.4,525.5,400C525.5,469.6,469.3,525.9,400,525.9z M530.4,298.5c-16.2,0-29.3-13.2-29.3-29.4s13.1-29.4,29.3-29.4
		c16.2,0,29.3,13.2,29.3,29.4S546.6,298.5,530.4,298.5z"/>
	<path d="M0,0v800h800V0H0z M642.8,501.1c-1.2,26.1-5.3,43.9-11.4,59.5c-6.2,16.1-14.6,29.8-28.2,43.4c-13.6,13.6-27.2,22-43.3,28.3
		c-15.5,6.1-33.3,10.2-59.3,11.4c-26.1,1.2-34.4,1.5-100.7,1.5c-66.3,0-74.7-0.3-100.7-1.5c-26-1.2-43.8-5.3-59.3-11.4
		c-16.1-6.3-29.7-14.7-43.3-28.3c-13.6-13.6-21.9-27.3-28.2-43.4c-6-15.6-10.2-33.4-11.4-59.5c-1.2-26.2-1.5-34.5-1.5-101.1
		c0-66.6,0.3-75,1.5-101.1c1.2-26.1,5.3-43.9,11.4-59.5c6.2-16.1,14.6-29.8,28.2-43.4c13.6-13.6,27.2-22,43.3-28.3
		c15.5-6.1,33.3-10.2,59.3-11.4c26.1-1.2,34.4-1.5,100.7-1.5c66.3,0,74.7,0.3,100.7,1.5c26,1.2,43.8,5.3,59.3,11.4
		c16.1,6.3,29.7,14.7,43.3,28.3c13.6,13.6,21.9,27.3,28.2,43.4c6,15.6,10.2,33.4,11.4,59.5c1.2,26.2,1.5,34.5,1.5,101.1
		S644,475,642.8,501.1z"/>
</g>
</svg>
